<svg width="48" height="48" viewBox="0 0 48 48" xmlns="http://www.w3.org/2000/svg" fill="currentColor">
<path fill-rule="evenodd" clip-rule="evenodd" d="M20 39H10V43H11V42H20V39Z" fill="currentColor"/>
<path fill-rule="evenodd" clip-rule="evenodd" d="M44 18.3934C44 17.6238 43.3762 17 42.6066 17C42.4928 17 42.3826 17.0135 42.2773 17.039C42.1893 17.0136 42.0962 17 42 17H38C37.6299 17 37.3067 17.2011 37.1338 17.5H36.5C36.2239 17.5 36 17.7239 36 18C36 18.2761 36.2239 18.5 36.5 18.5H37.1338C37.3067 18.7989 37.6299 19 38 19H41.2857L41.7171 22.0198C40.7465 22.1573 40 22.9915 40 24V26C39.4477 26 39 26.4477 39 27V30H44V26V24C44 23.7829 43.9654 23.574 43.9015 23.3783C43.9647 23.2416 44 23.0894 44 22.9289V18.3934ZM42 18.5C42 18.7761 42.2239 19 42.5 19C42.7761 19 43 18.7761 43 18.5C43 18.2239 42.7761 18 42.5 18C42.2239 18 42 18.2239 42 18.5ZM42 25C41.4477 25 41 24.5523 41 24C41 23.4477 41.4477 23 42 23C42.5523 23 43 23.4477 43 24C43 24.5523 42.5523 25 42 25Z" fill="currentColor"/>
<path fill-rule="evenodd" clip-rule="evenodd" d="M46 31H34V43H46V31ZM36 32H44H45V33V41V42H44H36H35V41V33V32H36ZM44 41H36V33H44V41Z" fill="currentColor"/>
<path fill-rule="evenodd" clip-rule="evenodd" d="M33 31H21V43H33V31ZM23 32H31H32V33V41V42H31H23H22V41V33V32H23ZM31 41H23V33H31V41Z" fill="currentColor"/>
<path d="M21 23H29L33 31H21V23Z" fill="currentColor"/>
<path fill-rule="evenodd" clip-rule="evenodd" d="M8 38L2 32V12L8 6H28L34 12V31L34 30H33.4815L29.3333 22H26V19H33V18H26V7H25V18L11 18V7H10V18H3V19H10V37H11V19L25 19V22H20V25H16L12 38H8ZM17 38L20 28.25V31L20 38H17Z" fill="currentColor"/>
</svg>
