<?xml version="1.0" encoding="UTF-8"?>
<svg id="_Слой_1" data-name="Слой 1" xmlns="http://www.w3.org/2000/svg" xmlns:xlink="http://www.w3.org/1999/xlink" viewBox="0 0 48 48">
  <defs>
    <style>
      .cls-1 {
        clip-path: url(#clippath);
      }

      .cls-2 {
        fill: none;
      }

      .cls-2, .cls-3, .cls-4 {
        stroke-width: 0px;
      }

      .cls-5, .cls-4 {
        fill: #fff;
      }

      .cls-6 {
        clip-path: url(#clippath-1);
      }

      .cls-3 {
        fill: #5e5f74;
      }
    </style>
    <clipPath id="clippath">
      <circle class="cls-2" cx="92" cy="26.9" r="19.97"/>
    </clipPath>
    <clipPath id="clippath-1">
      <path class="cls-4" d="m146.6,90.1H12.75V-43.75h133.85V90.1Zm-133.35-.5h132.85V-43.25H13.25V89.6Z"/>
    </clipPath>
  </defs>
  <g>
    <path class="cls-3" d="m15.33,24c0-5.99,3.31-11.22,8.19-13.96-1.91-.86-4.02-1.33-6.24-1.33-8.45,0-15.29,6.85-15.29,15.29s6.84,15.29,15.29,15.29c2.22,0,4.33-.47,6.24-1.33-4.88-2.74-8.19-7.97-8.19-13.96Z"/>
    <path class="cls-3" d="m31.32,11.11c-1.63,0-3.18.3-4.62.85-4.84,1.87-8.28,6.56-8.28,12.04s3.44,10.18,8.28,12.04c1.44.56,2.99.86,4.62.86,7.11,0,12.89-5.79,12.89-12.9s-5.78-12.89-12.89-12.89Zm1.19,14.08c-.3.31-.72.5-1.19.5-.93,0-1.68-.76-1.68-1.69s.75-1.68,1.68-1.68c.47,0,.89.19,1.19.49.3.3.49.72.49,1.19s-.19.89-.49,1.19Z"/>
    <path class="cls-3" d="m31.32,9.01c-2.41,0-4.68.57-6.7,1.58-4.92,2.46-8.29,7.54-8.29,13.41s3.37,10.95,8.29,13.41c2.02,1.01,4.29,1.58,6.7,1.58,8.28,0,14.99-6.71,14.99-14.99s-6.71-14.99-14.99-14.99Zm0,28.89c-1.98,0-3.86-.42-5.57-1.17h-.01c-4.89-2.15-8.32-7.05-8.32-12.73s3.43-10.58,8.33-12.73c1.71-.74,3.59-1.16,5.57-1.16,7.66,0,13.89,6.23,13.89,13.89s-6.23,13.9-13.89,13.9Z"/>
  </g>
  <g class="cls-1">
    <g>
      <path class="cls-5" d="m146.6,90.1H12.75V-43.75h133.85V90.1Zm-133.35-.5h132.85V-43.25H13.25V89.6Z"/>
      <g class="cls-6">
        <g>
          <g>
            <rect class="cls-4" x="28.51" y="-9.55" width=".46" height="27.16"/>
            <rect class="cls-4" x="28.26" y="-9.8" width=".96" height="27.66"/>
          </g>
          <g>
            <rect class="cls-4" x="42.1" y="-8.93" width=".46" height="27.17"/>
            <rect class="cls-4" x="41.85" y="-9.18" width=".96" height="27.67"/>
          </g>
          <g>
            <rect class="cls-4" x="24.19" y="-21.89" width=".46" height="27.17"/>
            <rect class="cls-4" x="23.94" y="-22.14" width=".96" height="27.67"/>
          </g>
          <g>
            <rect class="cls-4" x="16.48" y="27.5" width=".46" height="27.16"/>
            <rect class="cls-4" x="16.23" y="27.25" width=".96" height="27.66"/>
          </g>
          <g>
            <rect class="cls-4" x="15.55" y="-3.06" width=".46" height="27.16"/>
            <rect class="cls-4" x="15.3" y="-3.31" width=".96" height="27.66"/>
          </g>
          <g>
            <rect class="cls-4" x="17.71" y="-25.29" width=".46" height="27.16"/>
            <rect class="cls-4" x="17.46" y="-25.54" width=".96" height="27.66"/>
          </g>
          <g>
            <rect class="cls-4" x="46.42" y="20.09" width=".46" height="27.16"/>
            <rect class="cls-4" x="46.17" y="19.84" width=".96" height="27.66"/>
          </g>
          <g>
            <rect class="cls-4" x="15.47" y="24.18" width="27.16" height=".46"/>
            <rect class="cls-4" x="15.22" y="23.92" width="27.66" height=".96"/>
          </g>
          <g>
            <rect class="cls-4" x="35.84" y="31.58" width="27.17" height=".46"/>
            <rect class="cls-4" x="35.59" y="31.33" width="27.67" height=".96"/>
          </g>
          <g>
            <rect class="cls-4" x="26.89" y="34.98" width="27.16" height=".46"/>
            <rect class="cls-4" x="26.64" y="34.73" width="27.66" height=".96"/>
          </g>
          <g>
            <rect class="cls-4" x="32.45" y="38.68" width="27.16" height=".46"/>
            <rect class="cls-4" x="32.2" y="38.43" width="27.66" height=".96"/>
          </g>
          <g>
            <rect class="cls-4" x="42.94" y="24.79" width="27.16" height=".46"/>
            <rect class="cls-4" x="42.69" y="24.54" width="27.66" height=".96"/>
          </g>
          <g>
            <rect class="cls-4" x="43.56" y="21.09" width="27.17" height=".46"/>
            <rect class="cls-4" x="43.31" y="20.84" width="27.67" height=".96"/>
          </g>
          <g>
            <rect class="cls-4" x="42.02" y="41.17" width="27.16" height=".46"/>
            <rect class="cls-4" x="41.77" y="40.92" width="27.66" height=".96"/>
          </g>
          <g>
            <rect class="cls-4" x="33.06" y="4.42" width="27.17" height=".46"/>
            <rect class="cls-4" x="32.82" y="4.17" width="27.67" height=".96"/>
          </g>
          <g>
            <rect class="cls-4" x="20.1" y="1.95" width="27.17" height=".46"/>
            <rect class="cls-4" x="19.85" y="1.7" width="27.67" height=".96"/>
          </g>
          <g>
            <rect class="cls-4" x="25.74" y="37.38" width=".46" height="27.16"/>
            <rect class="cls-4" x="25.49" y="37.13" width=".96" height="27.66"/>
          </g>
          <g>
            <rect class="cls-4" x="30.37" y="42.94" width=".46" height="27.16"/>
            <rect class="cls-4" x="30.12" y="42.69" width=".96" height="27.66"/>
          </g>
          <g>
            <rect class="cls-4" x="41.48" y="42.94" width=".46" height="27.16"/>
            <rect class="cls-4" x="41.23" y="42.69" width=".96" height="27.66"/>
          </g>
          <g>
            <rect class="cls-4" x="19.48" y="45.79" width="27.17" height=".46"/>
            <rect class="cls-4" x="19.24" y="45.54" width="27.67" height=".96"/>
          </g>
          <g>
            <rect class="cls-4" x="35.92" y="26.88" width=".46" height="27.16"/>
            <rect class="cls-4" x="35.67" y="26.63" width=".96" height="27.66"/>
          </g>
          <g>
            <rect class="cls-4" x="32.84" y="17" width=".46" height="27.17"/>
            <rect class="cls-4" x="32.59" y="16.75" width=".96" height="27.67"/>
          </g>
          <g>
            <rect class="cls-4" x="38.39" y="11.44" width=".46" height="27.17"/>
            <rect class="cls-4" x="38.14" y="11.19" width=".96" height="27.67"/>
          </g>
          <g>
            <rect class="cls-4" x="28.51" y="14.53" width=".46" height="27.16"/>
            <rect class="cls-4" x="28.26" y="14.28" width=".96" height="27.66"/>
          </g>
          <g>
            <rect class="cls-4" x="21.72" y="16.39" width=".46" height="27.16"/>
            <rect class="cls-4" x="21.47" y="16.14" width=".96" height="27.66"/>
          </g>
          <g>
            <rect class="cls-4" x="25.43" y="7.74" width=".46" height="27.17"/>
            <rect class="cls-4" x="25.18" y="7.49" width=".96" height="27.67"/>
          </g>
          <g>
            <rect class="cls-4" x="43.56" y="13.39" width="27.16" height=".46"/>
            <rect class="cls-4" x="43.31" y="13.14" width="27.66" height=".96"/>
          </g>
          <g>
            <rect class="cls-4" x="27.51" y="8.12" width="27.17" height=".46"/>
            <rect class="cls-4" x="27.26" y="7.87" width="27.67" height=".96"/>
          </g>
          <g>
            <rect class="cls-4" x="25.35" y="18.01" width="27.17" height=".46"/>
            <rect class="cls-4" x="25.1" y="17.76" width="27.67" height=".96"/>
          </g>
          <g>
            <rect class="cls-4" x="11.77" y="13.68" width="27.17" height=".46"/>
            <rect class="cls-4" x="11.52" y="13.43" width="27.67" height=".96"/>
          </g>
          <rect class="cls-4" x="-5.15" y="-.77" width="27.66" height=".96"/>
          <g>
            <rect class="cls-4" x="-3.97" y="5.96" width="27.16" height=".46"/>
            <rect class="cls-4" x="-4.22" y="5.71" width="27.66" height=".96"/>
          </g>
          <g>
            <rect class="cls-4" x="1.58" y="9.67" width="27.16" height=".46"/>
            <rect class="cls-4" x="1.33" y="9.42" width="27.66" height=".96"/>
          </g>
          <g>
            <rect class="cls-4" x="-5.52" y="17.09" width="27.16" height=".46"/>
            <rect class="cls-4" x="-5.77" y="16.84" width="27.66" height=".96"/>
          </g>
          <g>
            <rect class="cls-4" x="1.89" y="20.8" width="27.16" height=".46"/>
            <rect class="cls-4" x="1.64" y="20.55" width="27.66" height=".96"/>
          </g>
          <g>
            <rect class="cls-4" x="-8.6" y="25.12" width="27.16" height=".46"/>
            <rect class="cls-4" x="-8.85" y="24.87" width="27.66" height=".96"/>
          </g>
          <g>
            <rect class="cls-4" x=".34" y="43.64" width="27.16" height=".46"/>
            <rect class="cls-4" x=".09" y="43.39" width="27.66" height=".96"/>
          </g>
          <g>
            <rect class="cls-4" x=".34" y="33.76" width="27.16" height=".46"/>
            <rect class="cls-4" x=".09" y="33.51" width="27.66" height=".96"/>
          </g>
          <g>
            <rect class="cls-4" x="5.28" y="38.7" width="27.16" height=".46"/>
            <rect class="cls-4" x="5.03" y="38.45" width="27.66" height=".96"/>
          </g>
          <g>
            <rect class="cls-4" x="8.99" y="29.44" width="27.16" height=".46"/>
            <rect class="cls-4" x="8.74" y="29.19" width="27.66" height=".96"/>
          </g>
        </g>
        <g>
          <rect class="cls-4" x="-5.15" y="-.77" width="27.67" height=".96"/>
          <g>
            <rect class="cls-4" x="-3.97" y="5.96" width="27.17" height=".46"/>
            <rect class="cls-4" x="-4.22" y="5.71" width="27.67" height=".96"/>
          </g>
          <g>
            <rect class="cls-4" x="1.58" y="9.67" width="27.17" height=".46"/>
            <rect class="cls-4" x="1.33" y="9.42" width="27.67" height=".96"/>
          </g>
          <g>
            <rect class="cls-4" x="-5.52" y="17.09" width="27.17" height=".46"/>
            <rect class="cls-4" x="-5.77" y="16.84" width="27.67" height=".96"/>
          </g>
          <g>
            <rect class="cls-4" x="1.89" y="20.8" width="27.17" height=".46"/>
            <rect class="cls-4" x="1.64" y="20.55" width="27.67" height=".96"/>
          </g>
          <g>
            <rect class="cls-4" x="-8.6" y="25.12" width="27.17" height=".46"/>
            <rect class="cls-4" x="-8.85" y="24.87" width="27.67" height=".96"/>
          </g>
          <g>
            <rect class="cls-4" x="-9.53" y="46.11" width="27.16" height=".46"/>
            <rect class="cls-4" x="-9.78" y="45.86" width="27.66" height=".96"/>
          </g>
          <g>
            <rect class="cls-4" x=".34" y="43.64" width="27.17" height=".46"/>
            <rect class="cls-4" x=".09" y="43.39" width="27.67" height=".96"/>
          </g>
          <g>
            <rect class="cls-4" x=".34" y="33.76" width="27.17" height=".46"/>
            <rect class="cls-4" x=".09" y="33.51" width="27.67" height=".96"/>
          </g>
          <g>
            <rect class="cls-4" x="5.28" y="38.7" width="27.17" height=".46"/>
            <rect class="cls-4" x="5.03" y="38.45" width="27.67" height=".96"/>
          </g>
          <g>
            <rect class="cls-4" x="8.99" y="29.44" width="27.17" height=".46"/>
            <rect class="cls-4" x="8.74" y="29.19" width="27.67" height=".96"/>
          </g>
        </g>
      </g>
    </g>
  </g>
</svg>